<svg width="512" height="512" xmlns="http://www.w3.org/2000/svg"><path style="fill:#000;fill-opacity:1;fill-rule:nonzero;stroke:none;stroke-width:6.39685" d="M312.525 299.202c3.453 4.637 5.179 13.503 5.179 26.65v106.022c0 27.561 5.083 47.798 15.215 60.758C343.095 505.563 359.534 512 382.273 512H421v-43.934h-23.21c-12.4 0-20.682-2.784-24.806-8.29-4.172-5.52-6.22-15.696-6.22-30.528V305.14c0-29.285-13.747-43.934-41.335-43.934v-10.359c27.583 0 41.336-14.654 41.336-43.987V82.752c0-14.808 2.052-24.989 6.22-30.514 4.123-5.52 12.405-8.241 24.806-8.241H421V0h-38.727c-22.735 0-39.178 6.48-49.358 19.406-10.133 12.922-15.216 33.211-15.216 60.778v106.022c0 13.085-1.726 21.97-5.179 26.64-3.443 4.622-10.339 6.989-20.687 6.989H278.93v72.383h12.918c10.34 0 17.235 2.319 20.678 6.99m-113.04-86.405c-3.453-4.642-5.18-13.508-5.18-26.65V80.131c0-27.566-5.082-47.803-15.21-60.763C168.91 6.442 152.47.005 129.732.005H91v43.934h23.21c12.405 0 20.682 2.784 24.806 8.29 4.172 5.515 6.224 15.696 6.224 30.528v124.098c0 29.285 13.753 43.935 41.336 43.935v10.358c-27.583 0-41.336 14.654-41.336 43.987v124.118c0 14.813-2.048 24.994-6.224 30.518-4.124 5.516-12.401 8.242-24.807 8.242H91V512h38.727c22.744 0 39.178-6.48 49.368-19.406 10.128-12.922 15.216-33.207 15.216-60.773V325.8c0-13.09 1.726-21.97 5.178-26.64 3.434-4.622 10.334-6.994 20.678-6.994h12.914v-72.383h-12.914c-10.344 0-17.244-2.314-20.682-6.99"/></svg>