<svg xmlns="http://www.w3.org/2000/svg" viewBox="0 0 450 246">
   <path
      d="M152.88987 83.89223c-.57252-4.0879-.66317-15.7761-.66317-15.7761V12.63354c0-.27221-.23855-.49427-.53197-.49427H137.8373c-.29342 0-.53197.22206-.53197.49427v40.07181c0 2.90117.0191 5.58265-.20038 7.93701-.002.0215-.007.0429-.0119.0669-.48903 2.36152-1.77959 4.55828-3.87407 6.59268-.36975.4107-.75382.80469-1.15936 1.18911-4.1818 3.94941-9.13651 5.93127-14.88559 5.94082-.0191 0-.031.002-.0501.002h-1.57205c-2.4046 0-4.53725-.2937-6.38602-.88109-6.21902-1.96276-9.33211-7.22067-9.33211-15.7785V12.6332c0-.27221-.23617-.49427-.53197-.49427H85.44194c-.29342 0-.53197.22206-.53197.49427v48.0327c0 3.13993.41985 6.01721 1.24285 8.639.0525.48234.11212.96467.1813 1.44222.11689 2.96802 1.08302 5.89306 2.21137 8.74885.12404.3534.25048.7044.38168 1.05541.31727 1.20582 1.35497 4.01863 1.4814 4.29084.30058.63516.59877 1.2727.89934 1.91023.007.0167.0215.0286.0286.0453 0 0 1.51718 4.02103 1.27386 6.5664-.23617 2.45703-1.42892 3.75122-4.32016 3.0898-1.29056-.2937-2.63599-.38205-3.95041-.59695-3.55441-.58262-7.26149 1.15569-8.96236 3.95895 4.21281.23878 8.60454.64948 12.99626.65903 2.02291.005 4.20327-.48233 6.02103-1.30373 1.30726-.58739 2.13026-2.09648 3.22998-3.25933-.9375-4.34577-1.19037-7.09411.0668-9.10224.63693-1.02198 1.66747-1.85292 3.19658-2.60268.0334-.01.0668-.0167.10019-.0262 2.34019.80707 4.90223 1.35149 7.69566 1.62608 1.37883.15998 2.80775.24117 4.28438.24117 1.00668 0 4.5277-.0502 5.33161-.0502 7.1303 0 13.53778-1.65951 19.22007-4.96421.35544-.20773.81823.0239.81823.4131v2.55492c.36021.1958.72519.38444 1.09256.57069.2147.10745.42701.2149.6417.31519 1.24762.58978 2.13503 1.23209 2.76958 1.92216 1.68656 1.82666 1.55774 4.0091 1.31442 6.55447-.23617 2.45703-1.42892 3.75122-4.32016 3.0898-1.29056-.2937-2.63599-.38205-3.95041-.59695-3.55441-.58262-7.26149 1.15569-8.96236 3.95895 4.21519.23878 8.60453.64948 12.99626.65903 2.02291.005 4.20327-.48233 6.02103-1.30373 1.30726-.58739 2.13026-2.09648 3.22998-3.25933-.93512-4.34577-1.19037-7.09411.0668-9.10224.53674-.8596 1.35259-1.5831 2.50718-2.23735.35305-.20057.74189-.39399 1.15936-.58262-.005-.0334-.01-.0645-.0143-.0979m294.92882-61.94998c1.67463-3.71779 1.7939-7.43557.3292-11.21067-.79199-2.03678-2.39028-3.07785-4.68992-3.23066-1.38598-.0908-2.75049.0836-4.04105.53963-3.5902 1.2703-7.19709 2.50718-10.73003 3.90642-1.60068.63276-3.21805 1.25359-4.78056 1.97709-3.91224-1.29657-8.36837-1.94844-13.3851-1.94844h-.26957c-.4604-.0239-.92558-.0358-1.38836-.0429h-.24571c-.46518.007-.75859.0191-1.21661.0429h-.27434c-3.43036 0-6.58162.32951-9.49671.93601-1.35736-1.50191-2.72903-2.99189-4.06253-4.51291-2.15889-2.4618-4.83304-4.20489-8.02724-5.34148-2.15889-.76886-4.60881-.13371-6.09975 1.61653-1.70087 2.00097-2.58113 4.32667-3.10355 6.77176-1.41938 6.64522-1.35259 13.27371-.12405 19.87116-.21231.68529-.41747 1.37537-.57729 2.08453-.44132 2.00336-.66318 4.107-.66318 6.3157v20.38452c0 2.20632.22186 4.31235.66318 6.3157.19561.87871.43416 1.7383.71088 2.57403 1.36212 4.09505 3.72855 7.72687 7.10882 10.8907 5.64173 5.3152 13.52585 7.96565 23.67142 7.96565h.27434c.45802.0191.75143.031 1.21661.0405h.24571c.46278-.01.92796-.0215 1.38836-.0405h.26957c10.14796 0 18.02969-2.65045 23.67858-7.96565 3.37311-3.16383 5.74669-6.79565 7.10405-10.8907.27672-.83573.51288-1.69532.70849-2.57403.44132-2.00335.66556-4.10938.66556-6.3157V39.71652c0-2.2087-.22424-4.31234-.66556-6.3157-.0954-.42025-.22662-.82139-.34112-1.23448.31011-.3725.64647-.72589.94227-1.11032 2.16843-2.82713 3.76672-5.9241 5.20519-9.11417m-66.62016.36055c-.0215-2.66239.10019-5.32716.40076-7.98953.26957-2.40211 2.26147-7.08934 2.26147-7.08934s2.7982 1.97231 3.9671 3.10174c1.43369 1.3873 2.8149 2.81281 4.15556 4.27174-3.24906 1.30135-6.10929 3.05875-8.5282 5.33909-.81346.75932-1.56012 1.55206-2.25669 2.3663m46.42919 19.74221v18.05643c0 1.15808-.0811 2.25885-.23616 3.29754-.0549.37011-.11689.73305-.19561 1.08644-.62978 3.01816-1.96805 5.49429-4.00528 7.43556-2.95087 2.83192-7.00386 4.24549-12.18996 4.24549l-2.13741.0286h-.24571l-1.96805-.0286c-5.1861 0-9.23908-1.41357-12.19234-4.24549-2.03484-1.94127-3.37073-4.4174-4.00528-7.43556-.0739-.35339-.14074-.71633-.19084-1.08644-.15983-1.03869-.23855-2.13946-.23855-3.29754V39.71652c0-1.15569.0787-2.25646.23855-3.29753.0501-.37011.11689-.73305.19084-1.08645.63455-3.01577 1.97044-5.4919 4.00528-7.43556 2.95326-2.83192 7.02533-4.24549 12.19234-4.24549l1.96805-.0286h.24571l2.13741.0286c5.16702 0 9.23909 1.41357 12.18996 4.24549 2.03723 1.94366 3.3755 4.41979 4.00528 7.43556.0787.3534.14074.71634.19561 1.08645.15506 1.04107.23616 2.14184.23616 3.29753zm11.41706-16.06264c-1.28579-2.1681-2.87454-4.19773-4.84497-6.04587-1.2023-1.12942-2.52387-2.11319-3.92894-3.00145l2.35211-.38921c2.58113-.98854 5.16941-1.97231 7.75769-2.94891.54866-.20535 1.14981-.2937 1.71995-.45368.45802-.12655.66794-.007.76813.45368.42939 1.9747.35306 3.92074-.43416 5.80232-.95182 2.27794-2.02053 4.50814-3.38981 6.58312M331.76955 72.54332c.94705-.81185 1.41938-2.33525 1.41938-4.56067v-42.4429h-16.03779v-11.884h16.03779V0h14.92614v13.65575h15.99246v11.884h-15.99246v44.61101c0 5.0239-1.48379 8.93748-4.47999 11.74074-2.97712 2.7961-7.24718 4.19773-12.80065 4.19773h-16.14037V73.78258h12.21382c2.3044 0 3.92655-.41309 4.86167-1.23926m-71.791 13.54519V13.73144h14.03397v15.91937c1.56012-5.30567 4.39172-9.40787 8.49957-12.30187 4.10546-2.894 8.80969-4.341 14.11268-4.341h7.01579v13.3143h-6.23573c-7.07065 0-12.60742 2.0511-16.60792 6.14855-4.00289 4.1022-6.00433 9.76842-6.00433 17.0058v36.61192zM5.60366 39.78553c0-2.19438.22663-4.28608.67272-6.2751.19799-.87154.43654-1.7216.72042-2.55732 1.37405-4.0664 3.76911-7.67435 7.18993-10.82145 5.70853-5.27701 13.68806-7.90834 23.95291-7.90834 0 0 3.30155-.0215 4.35118.0405 7.28535.44414 13.62365 2.41645 18.99105 5.92649 5.98047 3.90403 9.65893 9.34102 11.02821 16.32052.0573.30325-.19799.58262-.52719.58262H57.38833c-.0286-.13372-.0573-.25788-.0883-.38444-.80153-3.49333-2.73857-6.16287-5.83258-8.0325-1.93465-1.16764-4.06252-1.97948-6.38124-2.44271-.73951-.15043-1.50048-.26266-2.28055-.33668-.82777-.0812-5.14554-.0717-5.14554-.0717-5.23143 0-9.34882 1.40163-12.33787 4.21443-2.06346 1.93173-3.41366 4.39353-4.05536 7.38781-.074.35578-.14075.71395-.198 1.08167-.15745 1.03392-.23617 2.12275-.23617 3.27605v20.25081c0 1.15091.0787 2.24213.23617 3.27365.0573.37011.12405.72827.198 1.08405.6417 2.99429 1.9919 5.4561 4.05536 7.38304 2.98905 2.8152 7.08974 4.21683 12.33787 4.21683 0 0 4.31777.0119 5.14554-.0693.78007-.074 1.54104-.18625 2.28055-.33668 2.31872-.46324 4.44659-1.27508 6.38124-2.44271 3.08924-1.86963 5.02627-4.53202 5.83019-8.01818.19561-.15043.32682-.24834.52243-.39876h14.16278c.3292 0 .58445.27937.52719.58261-1.36928 6.97711-5.04774 12.41649-11.02821 16.31813-5.3674 3.51244-11.7057 5.48475-18.99105 5.9241-1.04963.0669-4.35118.0429-4.35118.0429-10.26485 0-18.24438-2.62895-23.95291-7.90835-3.42082-3.14471-5.81588-6.75265-7.18993-10.81906-.28388-.83572-.52243-1.68577-.72042-2.5597-.44609-1.99141-.67272-4.08072-.67272-6.27271V49.91661zm215.59531 17.07028v1.51385c0 4.17147-1.91795 8.26413-6.54822 11.5139-4.16033 2.92266-8.85025 4.16431-13.26106 4.46517-.5105.0334-1.01622.0525-1.52911.0525h-1.58398c-3.57826 0-6.58639-.99571-9.0053-2.98951-1.82253-1.50192-2.96519-3.29037-3.41844-5.36775-.1479-.68529-.22185-1.39447-.22185-2.13706 0-2.82714 1.06871-5.1815 3.19658-7.05113.35306-.3128.73713-.61127 1.1522-.89542 2.90317-1.97948 6.80587-3.57213 11.46-3.57213l19.2296.12416c.29342.002.52958.22207.52958.49427zM183.82518 32.8705c.7896-3.51005 2.70278-6.19153 5.75385-8.06833 3.16557-1.94604 6.85834-2.91549 11.06161-2.91549h.95421c.53912 0 3.01051.0502 3.01051.0502 5.15748 0 9.22239 1.41357 12.16611 4.23354 2.03245 1.93888 3.36834 4.41502 4.0005 7.42363.28387 1.34909.427 2.81042.427 4.37681v3.41453c0 .27221-.23855.49427-.53196.49427l-18.07979.031c-5.80156 0-10.12888.8405-13.23959 1.66907-2.18989.58262-4.33208 1.36581-6.4361 2.35197-.8898.42024-1.77244.86915-2.64554 1.35865-2.95564 1.65951-5.29583 3.93984-7.03725 6.85294-1.73427 2.92027-2.60737 6.35867-2.60737 10.34389 0 .71395.031 1.41357.1002 2.09648.49857 5.2961 2.93417 9.74455 7.33306 13.35488 4.9547 4.08073 11.16419 6.11989 18.64992 6.11989 1.01623 0 4.55633-.0549 5.36263-.0549 7.20901 0 13.68567-1.68339 19.42521-5.04301.33636-.19818.78006 0 .81585.37011.10257 1.09838.23378 2.05589.39122 2.86773.0453.234.26718.39876.52243.39876h13.17756c.32204 0 .56775-.26265.5272-.55874-.47472-3.41692-.70373-8.56977-.70373-15.47285v-30.5947c0-3.16621-.4604-6.12229-1.37167-8.87302-1.35974-4.08788-3.72378-7.71015-7.09212-10.87159-5.63696-5.30088-13.51153-7.71493-23.63087-7.94655-.0906-.002-1.77244-.0501-2.53341-.0501-8.53059 0-15.83741 2.01529-21.89661 6.04587-5.89698 3.92552-9.52773 9.38877-10.87793 16.40169-.0573.30087.198.58024.52959.58024h14.3894c.0262-.13133.0573-.25788.0859-.38682m148.99851 208.38249c-1.34543.21968-2.72426.31042-4.04583.61128-2.96519.67812-4.18657-.64948-4.42751-3.16621-.24809-2.60985-.38168-4.84242 1.34782-6.71684.63931-.69484 1.52911-1.34194 2.77434-1.9365.0215-.01.0406-.0215.062-.031.57729-.27221 1.14266-.56591 1.70325-.86916v-70.96269c0-.2746-.23855-.49427-.53197-.49427h-13.75008c-.29342 0-.53197.21967-.53197.49427v8.07071c0 .47756-.65601.67336-.96136.28653-5.44135-6.86488-12.91754-10.29851-22.43096-10.29851-11.90131 0-20.32932 4.22399-25.28641 12.67197-.198.33907-.71089.35101-.92797.0215-5.52246-8.46469-13.93615-12.69346-25.24586-12.69346-8.83355 0-15.7229 2.29227-20.66091 6.87443-4.93801 4.58216-7.40701 10.73309-7.40701 18.45042v47.47872c.72281.31757 1.3502.6471 1.88933 1.00048.89456.58024 1.55058 1.21777 2.01098 1.95322 1.28818 2.05827 1.02577 4.87347.0668 9.32668 1.12596 1.19151 1.97043 2.73641 3.3087 3.34051 1.86308.8405 4.09592 1.33956 6.17132 1.33478 4.49907-.01 8.99576-.43219 13.31353-.67575-1.74142-2.87011-5.53915-4.6514-9.18183-4.05445-1.34781.21967-2.72425.3104-4.04821.61127-2.96281.67575-4.18419-.64948-4.42512-3.1662-.25048-2.60985-.38169-4.84244 1.34542-6.71684.64648-.70201 1.54581-1.35388 2.81014-1.95322.01-.005.0167-.01.0262-.0143.51765-.24355 1.02338-.50621 1.52672-.77603v-44.79487c0-11.09365 5.20042-16.64286 15.59409-16.64286h1.55774c5.09545 0 9.61838 2.00336 13.56878 6.00528 3.95041 4.00431 5.92561 9.24073 5.92561 15.70208v39.55843c.68464.30564 1.28341.62559 1.80106.96227.89218.58024 1.55058 1.21777 2.0086 1.95322 1.28818 2.05827 1.02816 4.87347.0668 9.32668 1.12834 1.19151 1.97281 2.73641 3.31108 3.34051 1.86309.8405 4.09593 1.33956 6.17132 1.33478 4.49907-.01 8.99576-.43219 13.31354-.67575-1.74143-2.87011-5.54154-4.6514-9.18422-4.05445-1.34543.21967-2.72425.3104-4.04583.61127-2.9628.67575-4.18418-.64948-4.42512-3.16621-.25048-2.60984-.38407-4.84243 1.34543-6.71683.64647-.70201 1.54581-1.35388 2.80775-1.95322.01-.005.0191-.01.0286-.0143.54628-.25788 1.08302-.53487 1.61499-.82378v-44.74712c0-11.09365 5.19803-16.64286 15.59409-16.64286h1.55774c5.09545 0 9.61838 2.00336 13.56878 6.00528 3.95041 4.00431 5.92561 9.24073 5.92561 15.70208v39.58233c.6584.29846 1.2357.60888 1.73665.93839.88026.57546 1.52911 1.21061 1.98475 1.9365 1.28817 2.05827 1.02577 4.87586.0668 9.3267 1.12596 1.1915 1.97043 2.73639 3.30871 3.34051 1.86308.8405 4.0983 1.34193 6.17131 1.33715 4.49908-.01 8.99815-.43219 13.31354-.67574-1.74143-2.87251-5.53916-4.6538-9.18183-4.05685m65.96136-38.67468v1.51385c0 4.17146-1.91795 8.26413-6.54823 11.51391-4.16033 2.92264-8.85024 4.1643-13.26105 4.46515-.5105.0334-1.01623.0525-1.52911.0525h-1.58398c-3.57827 0-6.5864-.99571-9.00531-2.98951-1.82253-1.50191-2.96519-3.29036-3.41843-5.36774-.14552-.68529-.22186-1.39685-.22186-2.13707 0-2.82713 1.06871-5.18149 3.19659-7.05112.35305-.3128.73712-.61367 1.1522-.89543 2.90317-1.97947 6.80586-3.57212 11.45999-3.57212l19.22961.12416c.29341.002.52958.22207.52958.49427zm-37.3738-23.98532c.78961-3.51004 2.7004-6.19152 5.75385-8.06832 3.16558-1.94605 6.85835-2.91549 11.06162-2.91549h.9542c.53913 0 3.01052.0502 3.01052.0502 5.15747 0 9.22238 1.41356 12.16849 4.23354 2.03007 1.93888 3.36595 4.41502 3.99811 7.42362.28388 1.34911.42701 2.81043.42701 4.37681v3.41454c0 .27221-.23855.49427-.53197.49427l-18.07979.031c-5.80156 0-10.12887.8405-13.23958 1.66906-2.1899.58261-4.33209 1.36581-6.43611 2.35197-.88979.42025-1.77243.86915-2.64553 1.35864-2.95565 1.65951-5.29583 3.93985-7.03726 6.85295-1.73426 2.92026-2.60736 6.35867-2.60736 10.34389 0 .71395.031 1.41356.10019 2.09647.49857 5.29611 2.93418 9.74456 7.33306 13.35489 4.95471 4.08073 11.16419 6.1199 18.64992 6.1199 1.01623 0 4.55633-.055 5.36263-.055 7.20902 0 13.68568-1.6834 19.42522-5.04301.33635-.19819.78006 0 .81584.3701.10258 1.09839.23378 2.0535.39123 2.86774.0453.234.26717.39876.52242.39876h13.17756c.32205 0 .56776-.26265.5272-.55875-.47471-3.41691-.70372-8.56975-.70372-15.47285v-30.5947c0-3.16619-.46041-6.12466-1.37167-8.87301-1.35974-4.08789-3.72378-7.71016-7.09213-10.87397-5.63696-5.2985-13.51153-7.71255-23.63087-7.94417-.0906-.002-1.77243-.0525-2.53341-.0525-8.53059 0-15.8374 2.01768-21.8966 6.04826-5.89699 3.92552-9.52773 9.38878-10.87555 16.40171-.0596.30086.19562.58022.5272.58022h14.3894c.0262-.13132.0573-.25787.0859-.38682m-251.52566-22.16337c1.37883-.15998 2.80775-.24117 4.28438-.24117 1.00669 0 4.52531.0501 5.33162.0501 7.13029 0 13.53777 1.65711 19.22006 4.96421.35544.20773.81823-.0239.81823-.4131v-3.12561h14.66612c-.6751 3.24261-.77768 16.45662-.77768 16.45662v55.4802c0 .2746-.23855.49428-.53197.49428h-13.85743c-.2958 0-.53435-.21968-.53435-.49428v-40.06942c0-2.90117.0215-5.58265-.198-7.93701-.002-.0215-.007-.0453-.0119-.0669-.48903-2.36152-1.77959-4.55828-3.87645-6.59267-.36737-.4107-.75383-.80469-1.15698-1.18912-4.1818-3.9494-9.1365-5.93126-14.88558-5.94081-.0191 0-.031-.002-.0501-.002h-1.57208c-2.40698 0-4.53724.29131-6.38601.88109-6.22142 1.96276-9.33212 7.22067-9.33212 15.7761v45.14109c0 .2746-.23855.49428-.53197.49428H86.64352c-.29342 0-.53197-.21968-.53197-.49428v-48.03031c0-7.73164 2.49525-13.88736 7.46904-18.47429 4.10307-3.77748 9.53965-6.0029 16.30496-6.6667m-57.50059 46.14844v1.51385c0 4.17146-1.91795 8.26413-6.54823 11.51391-4.16033 2.92264-8.85024 4.1643-13.26105 4.46515-.5105.0334-1.01623.0525-1.52911.0525h-1.58398c-3.57827 0-6.5864-.99571-9.00531-2.98951-1.82253-1.50191-2.96519-3.29036-3.41843-5.36774-.14552-.68529-.22186-1.39685-.22186-2.13707 0-2.82713 1.06871-5.18149 3.19659-7.05112.35305-.3128.73712-.61367 1.1522-.89543 2.90317-1.97947 6.80586-3.57212 11.45999-3.57212l19.22961.12416c.29342.002.52958.22207.52958.49427zM15.01116 178.593c.78961-3.51004 2.70279-6.19152 5.75385-8.06832 3.16558-1.94605 6.85835-2.91549 11.06162-2.91549h.9542c.53913 0 3.01052.0502 3.01052.0502 5.15747 0 9.22238 1.41356 12.16849 4.23354 2.03007 1.93888 3.36595 4.41502 3.99811 7.42362.28388 1.34911.42701 2.81043.42701 4.37681v3.41454c0 .27221-.23855.49427-.53197.49427l-18.07978.031c-5.80157 0-10.12888.8405-13.23959 1.66906-2.1899.58261-4.33209 1.36581-6.43611 2.35197-.88979.42025-1.77243.86915-2.64553 1.35864-2.95565 1.65951-5.29583 3.93985-7.03726 6.85295-1.73426 2.92026-2.60736 6.35867-2.60736 10.34389 0 .71395.031 1.41356.10019 2.09647.49857 5.29611 2.93657 9.74456 7.33306 13.35489 4.95471 4.08073 11.16419 6.1199 18.64993 6.1199 1.01622 0 4.55632-.055 5.36262-.055 7.20902 0 13.68568-1.6834 19.42522-5.04301.33636-.19819.78006 0 .81584.3701.10258 1.09839.23378 2.0535.39123 2.86774.0453.234.26717.39876.52242.39876h13.17757c.32204 0 .56775-.26265.52719-.55875-.47471-3.41691-.70372-8.56975-.70372-15.47285v-30.5947c0-3.16619-.46041-6.12466-1.37167-8.87301-1.35974-4.08789-3.72378-7.71016-7.09212-10.87397-5.63697-5.2985-13.51154-7.71255-23.63087-7.94417-.0906-.002-1.77244-.0525-2.53342-.0525-8.53058 0-15.8374 2.01768-21.8966 6.04826-5.89698 3.92552-9.52773 9.38878-10.87555 16.40171-.0596.30086.19562.58022.5272.58022h14.3894c.0262-.13132.0573-.25787.0859-.38682m420.1748 50.77775v-84.85713c0-.2722.23855-.49427.53197-.49427h13.75008c.29342 0 .53197.22207.53197.49427v84.85713c0 .27221-.23855.49427-.53197.49427h-13.75008c-.29342 0-.53197-.22206-.53197-.49427m-258.50207.17956v-71.36852c0-.27221.23855-.49427.53197-.49427h13.75008c.29342 0 .53197.22206.53197.49427v71.36852c0 .27221-.23855.49427-.53197.49427h-13.75008c-.29342 0-.53197-.22206-.53197-.49427" />
</svg>