<svg xmlns="http://www.w3.org/2000/svg" xml:space="preserve" style="enable-background:new 0 0 800 86"
   viewBox="0 0 800 86">
   <path
      d="M567.91 72.14V11.99c0-.23.2-.41.45-.41h11.57c.25 0 .45.18.45.41v60.15c0 .23-.2.42-.45.42h-11.57c-.24-.01-.45-.19-.45-.42m219.62-.16V.47c0-.23.2-.42.45-.42h11.57c.25 0 .45.19.45.42v71.51c0 .23-.2.42-.45.42h-11.57c-.25 0-.45-.19-.45-.42M429.81 29.19c.66-2.96 2.27-5.22 4.84-6.8 2.66-1.64 5.78-2.46 9.31-2.46h.8c.46 0 2.53.04 2.53.04 4.34 0 7.77 1.19 10.25 3.57 1.71 1.63 2.84 3.72 3.37 6.26.24 1.14.36 2.37.36 3.69v2.88c0 .23-.2.42-.45.42l-15.22.03c-4.89 0-8.53.71-11.14 1.41-1.84.49-3.65 1.15-5.42 1.98-.75.36-1.49.73-2.23 1.15-2.49 1.4-4.46 3.32-5.92 5.77-1.46 2.46-2.2 5.36-2.2 8.72 0 .6.03 1.19.09 1.77.42 4.46 2.47 8.21 6.17 11.26 4.17 3.44 9.4 5.16 15.7 5.16.85 0 3.83-.04 4.51-.04 6.07 0 11.52-1.42 16.35-4.25.28-.17.66 0 .69.31.09.93.2 1.73.33 2.42.04.2.22.34.44.34h11.09c.27 0 .48-.22.44-.47-.4-2.88-.59-7.22-.59-13.04V33.49c0-2.67-.39-5.16-1.16-7.48-1.14-3.44-3.13-6.5-5.97-9.16-4.75-4.47-11.38-6.5-19.89-6.7-.08 0-1.49-.04-2.13-.04-7.18 0-13.33 1.7-18.43 5.09-4.97 3.31-8.02 7.91-9.15 13.82-.05.25.16.49.44.49h12.11c.03-.1.05-.21.08-.32m31.46 20.22v1.27c0 3.52-1.61 6.97-5.51 9.71-3.5 2.46-7.45 3.51-11.16 3.76-.43.03-.86.04-1.29.04h-1.33c-3.01 0-5.54-.84-7.58-2.52-1.53-1.27-2.5-2.78-2.88-4.53-.12-.58-.18-1.18-.18-1.8 0-2.38.9-4.37 2.69-5.94.29-.26.62-.52.97-.76 2.45-1.67 5.73-3.01 9.65-3.01l16.19.1c.25 0 .45.19.45.42v3.26zM152.04 27.7c.66-2.96 2.27-5.22 4.84-6.8 2.66-1.64 5.78-2.46 9.31-2.46h.8c.46 0 2.53.04 2.53.04 4.34 0 7.77 1.19 10.25 3.57 1.71 1.63 2.84 3.72 3.37 6.26.24 1.14.36 2.37.36 3.69v2.88c0 .23-.2.42-.45.42l-15.22.03c-4.89 0-8.53.71-11.14 1.41-1.84.49-3.65 1.15-5.42 1.98-.75.36-1.49.73-2.23 1.15-2.49 1.4-4.46 3.32-5.92 5.77-1.46 2.46-2.2 5.36-2.2 8.72 0 .6.03 1.19.09 1.77.42 4.46 2.47 8.21 6.17 11.26 4.17 3.44 9.4 5.16 15.7 5.16.85 0 3.83-.04 4.51-.04 6.07 0 11.52-1.42 16.35-4.25.28-.17.66 0 .69.31.09.93.2 1.73.33 2.42.04.2.22.34.44.34h11.09c.27 0 .48-.22.44-.47-.4-2.88-.59-7.22-.59-13.04V32c0-2.67-.39-5.16-1.16-7.48-1.14-3.44-3.13-6.5-5.97-9.16-4.75-4.47-11.38-6.5-19.89-6.7-.08 0-1.49-.04-2.13-.04-7.18 0-13.33 1.7-18.43 5.09-4.97 3.31-8.02 7.91-9.15 13.82-.05.25.16.49.44.49h12.11c.02-.1.05-.21.08-.32m31.46 20.22v1.27c0 3.52-1.61 6.97-5.51 9.71-3.5 2.46-7.45 3.51-11.16 3.76-.43.03-.86.04-1.29.04h-1.33c-3.01 0-5.54-.84-7.58-2.52-1.53-1.27-2.5-2.78-2.88-4.53-.12-.58-.18-1.18-.18-1.8 0-2.38.9-4.37 2.69-5.94.29-.26.62-.52.97-.76 2.45-1.67 5.73-3.01 9.65-3.01l16.19.1c.25 0 .45.19.45.42v3.26zM0 33.53c0-1.85.19-3.61.57-5.29.17-.74.37-1.45.6-2.16 1.16-3.43 3.18-6.47 6.06-9.12 4.8-4.45 11.52-6.67 20.16-6.67 0 0 2.78-.02 3.66.04 6.13.37 11.47 2.04 15.99 5 5.04 3.29 8.13 7.87 9.28 13.75.05.25-.17.49-.44.49H43.59c-.03-.11-.05-.22-.07-.32-.68-2.95-2.31-5.2-4.91-6.77-1.63-.98-3.42-1.67-5.37-2.06-.62-.13-1.26-.22-1.92-.29-.7-.07-4.33-.06-4.33-.06-4.4 0-7.87 1.18-10.39 3.55-1.74 1.62-2.87 3.7-3.41 6.23-.06.3-.12.6-.17.91-.13.87-.2 1.79-.2 2.76v17.07c0 .97.07 1.89.2 2.76.05.31.11.61.17.91.54 2.52 1.67 4.6 3.41 6.22 2.52 2.37 5.97 3.55 10.39 3.55 0 0 3.63.01 4.33-.06.66-.06 1.3-.15 1.92-.28 1.95-.39 3.74-1.08 5.37-2.06 2.6-1.58 4.23-3.82 4.91-6.76.17-.12.28-.21.44-.33h11.92c.28 0 .49.24.44.49-1.15 5.88-4.25 10.46-9.28 13.75-4.52 2.96-9.86 4.62-15.99 4.99-.89.06-3.66.04-3.66.04-8.64 0-15.36-2.21-20.16-6.66-2.88-2.65-4.9-5.69-6.06-9.12-.24-.71-.44-1.42-.6-2.16C.19 54.21 0 52.44 0 50.6V33.53zm511.68-23.02c1.16-.14 2.36-.2 3.61-.2.85 0 3.81.04 4.49.04 6 0 11.4 1.4 16.18 4.19.3.18.69-.02.69-.35v-2.63h12.34c-.57 2.73-.65 13.87-.65 13.87v46.76c0 .23-.2.41-.45.41h-11.67c-.25 0-.45-.18-.45-.41V38.41c0-2.44.02-4.7-.17-6.69 0-.02 0-.04-.01-.05-.41-1.99-1.5-3.84-3.26-5.56-.31-.34-.64-.68-.98-1-3.52-3.33-7.69-5-12.53-5.01h-1.36c-2.02 0-3.82.25-5.38.74-5.23 1.66-7.85 6.09-7.85 13.3v38.04c0 .23-.2.41-.45.41h-11.67c-.25 0-.45-.18-.45-.41V31.7c0-6.52 2.1-11.71 6.29-15.57 3.46-3.18 8.04-5.06 13.73-5.62m213.75 18.68c.66-2.96 2.27-5.22 4.84-6.8 2.66-1.64 5.78-2.46 9.31-2.46h.8c.46 0 2.53.04 2.53.04 4.34 0 7.77 1.19 10.25 3.57 1.71 1.63 2.84 3.72 3.37 6.26.24 1.14.36 2.37.36 3.69v2.88c0 .23-.2.42-.45.42l-15.22.03c-4.89 0-8.53.71-11.14 1.41-1.84.49-3.65 1.15-5.42 1.98-.75.36-1.49.73-2.23 1.15-2.49 1.4-4.46 3.32-5.92 5.77-1.46 2.46-2.2 5.36-2.2 8.72 0 .6.03 1.19.09 1.77.42 4.46 2.47 8.21 6.17 11.26 4.17 3.44 9.4 5.16 15.7 5.16.85 0 3.83-.04 4.51-.04 6.07 0 11.52-1.42 16.35-4.25.28-.17.66 0 .69.31.09.93.2 1.73.33 2.42.04.2.22.34.44.34h11.09c.27 0 .48-.22.44-.47-.4-2.88-.59-7.22-.59-13.04V33.49c0-2.67-.39-5.16-1.16-7.48-1.14-3.44-3.13-6.5-5.97-9.16-4.74-4.47-11.38-6.5-19.89-6.7-.08 0-1.49-.04-2.13-.04-7.18 0-13.33 1.7-18.43 5.09-4.97 3.31-8.02 7.91-9.15 13.82-.05.25.16.49.44.49h12.11c.02-.1.05-.21.08-.32m31.46 20.22v1.27c0 3.52-1.61 6.97-5.51 9.71-3.5 2.46-7.45 3.51-11.16 3.76-.43.03-.86.04-1.29.04h-1.33c-3.01 0-5.54-.84-7.58-2.52-1.53-1.27-2.5-2.78-2.88-4.53-.12-.58-.18-1.18-.18-1.8 0-2.38.9-4.37 2.69-5.94.29-.26.62-.52.97-.76 2.45-1.67 5.73-3.01 9.65-3.01l16.19.1c.25 0 .45.19.45.42v3.26zM701.36 82c-1.14.18-2.29.26-3.41.51-2.5.57-3.52-.54-3.73-2.67-.21-2.2-.32-4.08 1.14-5.66.54-.59 1.29-1.13 2.34-1.63.02-.01.04-.02.05-.03.49-.23.96-.47 1.43-.73v-59.8c0-.23-.2-.42-.45-.42h-11.57c-.25 0-.45.18-.45.42v6.8c0 .4-.55.57-.81.24-4.58-5.79-10.88-8.68-18.88-8.68-10.02 0-17.11 3.56-21.28 10.68-.17.29-.6.3-.78.02-4.65-7.13-11.73-10.7-21.25-10.7-7.44 0-13.23 1.93-17.39 5.79-4.15 3.86-6.24 9.05-6.24 15.55V71.7c.61.27 1.14.54 1.59.84.75.49 1.31 1.03 1.69 1.65 1.09 1.73.86 4.11.06 7.86.95 1 1.66 2.31 2.79 2.82 1.57.71 3.45 1.13 5.19 1.12 3.79-.01 7.57-.36 11.21-.57-1.47-2.42-4.67-3.92-7.73-3.42-1.14.18-2.3.26-3.41.52-2.49.57-3.52-.55-3.72-2.67-.21-2.2-.32-4.08 1.13-5.66.54-.59 1.3-1.14 2.36-1.65.01 0 .02-.01.03-.01.43-.21.86-.43 1.28-.65V34.14c0-9.35 4.38-14.03 13.12-14.03h1.31c4.29 0 8.09 1.69 11.42 5.06 3.33 3.38 4.99 7.79 4.99 13.24v33.33c.58.26 1.08.53 1.52.81.75.49 1.31 1.03 1.69 1.65 1.09 1.73.87 4.11.06 7.86.95 1 1.66 2.31 2.79 2.82 1.57.71 3.45 1.13 5.19 1.12 3.79-.01 7.58-.36 11.21-.57-1.47-2.42-4.66-3.92-7.73-3.42-1.13.18-2.29.26-3.41.52-2.49.57-3.52-.55-3.72-2.67-.21-2.2-.32-4.08 1.13-5.66.54-.59 1.3-1.14 2.36-1.65.01 0 .02-.01.03-.01.46-.22.91-.45 1.36-.69V34.14c0-9.35 4.38-14.03 13.12-14.03h1.31c4.29 0 8.09 1.69 11.42 5.06 3.33 3.38 4.99 7.79 4.99 13.24v33.36c.56.25 1.04.51 1.46.79.74.49 1.29 1.02 1.67 1.63 1.09 1.73.87 4.11.06 7.86.95 1 1.66 2.31 2.79 2.81 1.57.71 3.45 1.13 5.19 1.12 3.79-.01 7.58-.36 11.21-.57-1.47-2.41-4.66-3.92-7.73-3.41m-485.22-9.45V11.57h11.81v13.42c1.31-4.47 3.69-7.93 7.15-10.37 3.46-2.44 7.42-3.66 11.88-3.66h5.91v11.22h-5.25c-5.95 0-10.61 1.73-13.98 5.18-3.37 3.46-5.05 8.23-5.05 14.33v30.85h-12.47zm62.44-11.41c.8-.68 1.2-1.97 1.2-3.84V21.52h-13.5V11.51h13.5V0h12.56v11.51h13.46v10.01h-13.46v37.6c0 4.23-1.25 7.53-3.77 9.89-2.51 2.35-6.1 3.54-10.77 3.54h-13.59V62.18h10.28c1.94 0 3.31-.34 4.09-1.04m90.3-39.24c-1.08-1.83-2.41-3.54-4.08-5.09-1.01-.95-2.13-1.78-3.31-2.53l1.98-.33c2.17-.83 4.35-1.66 6.53-2.48.46-.18.97-.25 1.45-.38.38-.11.56-.01.64.38.36 1.67.3 3.31-.36 4.89-.79 1.91-1.69 3.79-2.85 5.54m-9.61 13.53v15.21c0 .97-.07 1.91-.2 2.78-.05.31-.1.62-.16.92-.53 2.54-1.66 4.63-3.37 6.27-2.48 2.38-5.89 3.57-10.26 3.57l-1.8.03h-.21l-1.66-.03c-4.36 0-7.78-1.19-10.26-3.57-1.71-1.64-2.84-3.72-3.37-6.27-.06-.3-.12-.61-.16-.92-.13-.87-.2-1.8-.2-2.78V33.47c0-.97.07-1.9.2-2.78.04-.31.1-.61.16-.91.53-2.54 1.66-4.63 3.37-6.27 2.48-2.39 5.91-3.58 10.26-3.58l1.66-.02h.21l1.8.02c4.35 0 7.78 1.19 10.26 3.58 1.72 1.64 2.84 3.72 3.37 6.27.07.3.11.6.16.91.13.88.2 1.8.2 2.78v1.96zM320.19 18.8c-.02-2.24.08-4.49.34-6.73.23-2.02 1.9-5.98 1.9-5.98s2.36 1.66 3.34 2.62c1.21 1.17 2.37 2.37 3.5 3.6-2.73 1.09-5.14 2.57-7.18 4.5-.68.63-1.31 1.3-1.9 1.99m56.08-.31c1.41-3.13 1.51-6.27.28-9.45-.67-1.72-2.01-2.6-3.94-2.72-1.17-.08-2.32.07-3.4.45-3.02 1.07-6.06 2.11-9.03 3.29-1.35.53-2.71 1.06-4.02 1.66-3.3-1.09-7.05-1.64-11.27-1.64h-.23c-.39-.02-.78-.03-1.17-.04h-.21c-.39.01-.64.02-1.03.04h-.23c-2.89 0-5.54.27-7.99.79-1.14-1.26-2.3-2.52-3.42-3.8-1.82-2.08-4.07-3.54-6.76-4.5-1.82-.65-3.88-.11-5.14 1.36-1.43 1.69-2.17 3.64-2.61 5.7-1.2 5.6-1.14 11.19-.11 16.75-.18.58-.35 1.16-.49 1.76-.37 1.69-.56 3.46-.56 5.32v17.18c0 1.86.18 3.64.56 5.32.17.74.36 1.47.6 2.17 1.14 3.45 3.14 6.51 5.98 9.18 4.75 4.48 11.38 6.71 19.93 6.71h.23c.39.02.63.03 1.03.04h.21c.39-.01.78-.02 1.17-.04h.23c8.54 0 15.18-2.24 19.93-6.71 2.84-2.67 4.84-5.73 5.98-9.18.23-.7.43-1.43.6-2.17.37-1.69.56-3.46.56-5.32V33.46c0-1.86-.19-3.63-.56-5.32-.08-.35-.19-.69-.29-1.04.26-.31.54-.61.79-.94 1.83-2.37 3.17-4.98 4.38-7.67M123.99 70.7c-.48-3.44-.56-13.3-.56-13.3V10.65c0-.23-.2-.42-.45-.42h-11.67c-.25 0-.45.19-.45.42v33.77c0 2.45.02 4.7-.17 6.69 0 .02 0 .04-.01.06-.41 1.99-1.5 3.84-3.26 5.56-.31.35-.64.68-.97 1-3.52 3.33-7.7 5-12.53 5.01h-1.36c-2.02 0-3.82-.25-5.38-.74-5.24-1.66-7.86-6.09-7.86-13.3V10.65c0-.23-.2-.42-.45-.42H67.21c-.25 0-.45.19-.45.42v40.48c0 2.65.35 5.07 1.05 7.28.04.4.1.81.15 1.22.1 2.5.91 4.96 1.86 7.37.1.29.21.59.32.89.27 1.01 1.14 3.39 1.25 3.61.25.54.5 1.08.75 1.61.01.01.02.02.03.04 0 0 1.28 3.39 1.07 5.53-.2 2.07-1.2 3.16-3.63 2.6-1.09-.25-2.22-.32-3.33-.5-2.99-.49-6.11.97-7.55 3.34 3.55.2 7.24.55 10.94.56 1.7 0 3.54-.41 5.07-1.1 1.1-.5 1.79-1.77 2.72-2.74-.79-3.66-1-5.98.06-7.67.53-.86 1.4-1.56 2.69-2.2.03 0 .06-.01.08-.02 1.97.68 4.13 1.14 6.48 1.37 1.16.14 2.37.21 3.61.21.85 0 3.81-.04 4.49-.04 6 0 11.39-1.4 16.17-4.18.3-.18.69.02.69.35v2.15c.3.17.61.32.92.48l.54.27c1.05.5 1.8 1.04 2.33 1.62 1.42 1.54 1.31 3.38 1.1 5.52-.2 2.07-1.2 3.16-3.64 2.6-1.08-.25-2.22-.32-3.32-.5-2.99-.49-6.11.97-7.55 3.34 3.55.2 7.24.55 10.94.56 1.7 0 3.54-.41 5.07-1.1 1.1-.5 1.8-1.77 2.72-2.74-.79-3.66-1-5.98.05-7.67.46-.72 1.14-1.34 2.11-1.89.3-.17.62-.33.98-.49.01-.06.01-.08.01-.11" />
</svg>