<svg id="Layer_1" data-name="Layer 1" version="1.1" width="480" height="87"
    xmlns="http://www.w3.org/2000/svg">
    <defs id="defs4">
        <style id="style2">.cls-1{fill:#000}</style>
    </defs>
    <g id="g328" transform="matrix(.99975 0 0 1.00439 -43.07 -88.617)">
        <path class="cls-1" d="M272.39 124.22c-.59-.78-.88-2.28-.88-4.5v-17.94q0-7-2.59-10.27c-1.74-2.19-4.54-3.28-8.42-3.28h-6.6v7.43h4c2.11 0 3.52.47 4.23 1.4.71.93 1.06 2.66 1.06 5.17v21q0 7.42 7 7.43v1.75q-7.05 0-7 7.44v21q0 3.76-1.06 5.16c-.71.94-2.12 1.4-4.23 1.4h-4v7.44h6.6c3.88 0 6.68-1.1 8.42-3.28 1.74-2.18 2.59-5.62 2.59-10.28v-17.96c0-2.21.29-3.71.88-4.5.59-.79 1.76-1.18 3.53-1.18h2.2V125.4h-2.2c-1.77 0-2.94-.39-3.53-1.18" id="path8"/>
        <g id="g318">
            <path class="cls-1" d="M197.59 109.25v-.35a19.74 19.74 0 0 0-2.06-.1h-3a22.08 22.08 0 0 0-3.07.21 19.35 19.35 0 0 0-8.16 3.08v-2.43h-8.22a89.8 89.8 0 0 1 .44 9.84v33.89h8.36v-24.46c0-1.76 0-3.47.12-4.81a7.89 7.89 0 0 1 2.17-4c.21-.24.42-.48.65-.71a11.32 11.32 0 0 1 8.34-3.59h.91a11.15 11.15 0 0 1 3.52.51v-7.07z" id="path10"/>
            <path class="cls-1" d="M114.1 108.93a18.63 18.63 0 0 0-2.4-.15h-3a19.75 19.75 0 0 0-11.23 3.3v-2.44h-8.2c.38 2 .43 9.94.43 9.94v33.8h8.37v-24.46c0-1.76 0-3.39.11-4.82a7.93 7.93 0 0 1 2.18-4c.2-.25.42-.48.65-.72a11.31 11.31 0 0 1 8.34-3.58h.91a10.86 10.86 0 0 1 3.57.53q5.24 1.77 5.23 9.52v27.56h8.37v-29.3q0-7-4.19-11.15a14.68 14.68 0 0 0-9.14-4" id="path12"/>
            <path class="cls-1" d="M51.88 126.31v-.91a8.46 8.46 0 0 1 3.65-6.91 13.79 13.79 0 0 1 7.39-2.68h1.73a7.32 7.32 0 0 1 5 1.79 5.75 5.75 0 0 1 1.9 3.23 5.91 5.91 0 0 1 .13 1.28 5.59 5.59 0 0 1-1.78 4.23 6.76 6.76 0 0 1-.64.54 10.75 10.75 0 0 1-6.37 2.12l-11-.07zm20.82 14.4a7.29 7.29 0 0 1-3.2 4.84 10.88 10.88 0 0 1-6.16 1.75h-2.21a9 9 0 0 1-6.78-2.54 8.57 8.57 0 0 1-2.23-4.45 13.6 13.6 0 0 1-.24-2.63v-2.38h10.37a26.12 26.12 0 0 0 7.38-1 20.47 20.47 0 0 0 3.58-1.41c.5-.25 1-.52 1.48-.82a10.84 10.84 0 0 0 3.92-4.11 12.72 12.72 0 0 0 1.45-6.21q0-.65-.06-1.26a11.65 11.65 0 0 0-4.08-8 15.07 15.07 0 0 0-10.39-3.68h-3a19.82 19.82 0 0 0-11.23 3.29 21.82 21.82 0 0 0-.31-2.45h-7.91a75.58 75.58 0 0 1 .44 9.62v18.37a18 18 0 0 0 .76 5.33 15.82 15.82 0 0 0 3.95 6.52c3.14 3.18 7.53 4.63 13.16 4.77h1.42A20.36 20.36 0 0 0 75 150.67a14.86 14.86 0 0 0 6.12-10.19h-8.37a1.89 1.89 0 0 1 0 .23" id="path14"/>
            <path class="cls-1" d="M152.51 145.4a3.7 3.7 0 0 1-.8-2.75V117h9v-7.17h-9v-8.23h-8.36v8.25h-9V117h9v27a9.62 9.62 0 0 0 2.51 7.09q2.5 2.53 7.17 2.53h9.05v-7.43h-6.85a3.9 3.9 0 0 1-2.72-.75" id="path16"/>
            <path class="cls-1" d="M213.14 126.31v-.91a8.46 8.46 0 0 1 3.65-6.91 13.79 13.79 0 0 1 7.39-2.68h1.73a7.32 7.32 0 0 1 5 1.79 5.81 5.81 0 0 1 1.9 3.23 6.61 6.61 0 0 1 .13 1.28 5.59 5.59 0 0 1-1.78 4.23 6.89 6.89 0 0 1-.65.54 10.72 10.72 0 0 1-6.38 2.14l-11-.07zm20.86 14.4a7.32 7.32 0 0 1-3.2 4.84 10.91 10.91 0 0 1-6.17 1.75h-2.2a9 9 0 0 1-6.78-2.54 8.57 8.57 0 0 1-2.23-4.45 13.6 13.6 0 0 1-.24-2.63v-2.38h10.37a26.18 26.18 0 0 0 7.38-1 20.47 20.47 0 0 0 3.58-1.41c.5-.25 1-.52 1.48-.82a10.74 10.74 0 0 0 3.91-4.11 12.61 12.61 0 0 0 1.46-6.21q0-.65-.06-1.26a11.69 11.69 0 0 0-4.08-8 15.07 15.07 0 0 0-10.39-3.68h-3a19.88 19.88 0 0 0-11.24 3.29 20 20 0 0 0-.3-2.45h-7.92a76 76 0 0 1 .43 9.62v18.37a18 18 0 0 0 .77 5.33 15.82 15.82 0 0 0 4 6.52c3.14 3.18 7.53 4.63 13.16 4.77h1.41a20.37 20.37 0 0 0 12.2-3.63 14.86 14.86 0 0 0 6.12-10.19H234a1.89 1.89 0 0 1 0 .23" id="path18"/>
        </g>
        <path id="path24" class="cls-1" d="M494.8 131.34v6.15a19.57 19.57 0 0 1-.37 3.82c-.11.53-.25 1.05-.4 1.55a15.92 15.92 0 0 1-4 6.58c-3.17 3.21-7.58 4.81-13.27 4.81h-1.9q-8.53 0-13.27-4.81a15.92 15.92 0 0 1-4-6.58 15.29 15.29 0 0 1-.4-1.55 18.83 18.83 0 0 1-.37-3.82v-12.31a18.8 18.8 0 0 1 .37-3.81 15.29 15.29 0 0 1 .4-1.55 15.86 15.86 0 0 1 4-6.58q4.74-4.81 13.27-4.8H476.75c5.69 0 10.1 1.59 13.27 4.8a15.86 15.86 0 0 1 4 6.58c.15.5.29 1 .4 1.55a19.54 19.54 0 0 1 .37 3.81zm-46-14.4h-9v27a9.62 9.62 0 0 1-2.5 7.06c-1.67 1.69-4.07 2.54-7.18 2.54h-9.06v-7.44h6.85a3.91 3.91 0 0 0 2.73-.75 3.71 3.71 0 0 0 .8-2.76v-25.65h-9v-7.18h9v-8.26h8.37v8.26h9zm-38.21 14.55v6.11a18.49 18.49 0 0 1-.38 3.78 15.29 15.29 0 0 1-.4 1.55 15.82 15.82 0 0 1-4 6.53q-4.8 4.78-13.42 4.78h-2.44a20.23 20.23 0 0 1-10.64-3.58 14.81 14.81 0 0 1-6.24-10.2h8.53c0 .08 0 .16.05.23a7.35 7.35 0 0 0 3.27 4.85 10.43 10.43 0 0 0 3.57 1.48 10.67 10.67 0 0 0 1.28.2c.47.05 2.89 0 2.89 0a9.25 9.25 0 0 0 6.91-2.54 8.57 8.57 0 0 0 2.27-4.46c0-.22.08-.43.11-.66a13.77 13.77 0 0 0 .13-2v-12.19a13.91 13.91 0 0 0-.13-2c0-.22-.07-.44-.11-.65a8.54 8.54 0 0 0-2.27-4.46 9.27 9.27 0 0 0-6.91-2.55h-2.89a11 11 0 0 0-4.85 1.67 7.35 7.35 0 0 0-3.27 4.85c0 .08 0 .16-.05.24H373a14.81 14.81 0 0 1 6.24-10.21 20.4 20.4 0 0 1 10.64-3.58h2.44q8.63 0 13.42 4.77a15.79 15.79 0 0 1 4 6.54 15.1 15.1 0 0 1 .4 1.54 18.52 18.52 0 0 1 .38 3.79zm-56.5 21.93a19.46 19.46 0 0 1-.31-2.45 19.78 19.78 0 0 1-11.23 3.3h-3a15.06 15.06 0 0 1-10.39-3.67 11.74 11.74 0 0 1-4.09-8c0-.41-.05-.83-.05-1.26a12.68 12.68 0 0 1 1.45-6.2 10.94 10.94 0 0 1 3.92-4.12c.49-.29 1-.56 1.48-.81a19.76 19.76 0 0 1 3.58-1.42 26.44 26.44 0 0 1 7.38-1h10.36v-2.34a14.47 14.47 0 0 0-.23-2.63 8.67 8.67 0 0 0-2.23-4.46 9 9 0 0 0-6.78-2.54h-2.21a10.88 10.88 0 0 0-6.16 1.75 7.38 7.38 0 0 0-3.21 4.84v.24H324a14.88 14.88 0 0 1 6.12-10.2 20.36 20.36 0 0 1 12.19-3.63h1.42c5.63.14 10 1.59 13.16 4.77a15.85 15.85 0 0 1 4 6.53 18 18 0 0 1 .76 5.33v18.35a75.47 75.47 0 0 0 .44 9.62zm166.57-61.91q-2.6-3.29-8.41-3.28H305.13c-1 .09-2 .1-3 .25a8 8 0 0 0-6.77 5.77 20.34 20.34 0 0 0-1 6.14c-.06 2.47 0 5 0 7.42v12.82a14.13 14.13 0 0 1-.29 2.33 2.55 2.55 0 0 1-2.36 2.3c-.92.12-1.86.1-2.79.14h-.66v12.25h1.36a21.08 21.08 0 0 1 2.26.17A2.52 2.52 0 0 1 294 140a15 15 0 0 1 .31 2.49v18.35c0 1.13 0 2.26.12 3.38a18.85 18.85 0 0 0 .95 4.71 8 8 0 0 0 5.58 5.42 15.15 15.15 0 0 0 3.15.45h208.08c3.88 0 6.68-1.1 8.41-3.28 1.73-2.18 2.6-5.62 2.6-10.28v-59.45q0-7-2.6-10.28m-34.48 31.03a8.59 8.59 0 0 0-2.24-4.49 9.08 9.08 0 0 0-6.83-2.56h-2.44a9 9 0 0 0-6.83 2.56 8.68 8.68 0 0 0-2.25 4.49c0 .21-.07.43-.1.65a14.16 14.16 0 0 0-.14 2v12.3a13.91 13.91 0 0 0 .14 2c0 .23.06.45.1.66a8.68 8.68 0 0 0 2.25 4.49 9 9 0 0 0 6.83 2.56H477.05a9.06 9.06 0 0 0 6.83-2.56 8.59 8.59 0 0 0 2.24-4.49 6.49 6.49 0 0 0 .11-.66 14 14 0 0 0 .13-2v-12.3a14.2 14.2 0 0 0-.13-2c0-.22-.06-.44-.11-.65m-150.33 13.69c-.23.18-.44.36-.64.54a5.61 5.61 0 0 0-1.78 4.23 6.73 6.73 0 0 0 .12 1.29 5.77 5.77 0 0 0 1.91 3.22 7.26 7.26 0 0 0 5 1.79h1.74a13.7 13.7 0 0 0 7.39-2.68 8.44 8.44 0 0 0 3.64-6.91v-3.51l-11-.08a10.81 10.81 0 0 0-6.39 2.14"/>
    </g>
</svg>