<svg xmlns="http://www.w3.org/2000/svg" viewBox="0 0 20 23">
   <path
      d="M17.27031 6.282475c-.34579-.586524-.77163-1.134587-1.30633-1.631371-.32338-.304479-.68199-.570498-1.0598-.810876l.63396-.105763c.69479-.26602 1.39279-.532038 2.09078-.794853.14729-.05769.31057-.08013.46426-.121791.12167-.03525.1793-.0031.20492.121791.1152.535244.0961 1.060871-.11521 1.56727-.25294.612164-.54111 1.214713-.91252 1.775597m-3.07692 4.33643v4.87488c0 .310889-.0224.612164-.064.891003-.016.09935-.0321.198713-.0512.294863-.1697.81409-.5315 1.48394-1.07901 2.00957-.79404.7628-1.88586 1.14419-3.2850402 1.14419l-.57633.01h-.0673l-.5315-.01c-1.396 0-2.49101-.38139-3.28506-1.14419-.54751-.52563-.9093-1.19228-1.079-2.00957-.0192-.0962-.0384-.195506-.0512-.294863-.0416-.278839-.064-.576909-.064-.891003V9.9907193c0-.3108903.0224-.6089603.064-.8910033.0128-.09935.0321-.195508.0512-.291659.1697-.814083.53149-1.483938 1.079-2.009565.79405-.766007 1.89227-1.147408 3.28506-1.147408l.5315-.0064h.0673l.57633.0064c1.3927802 0 2.4910002.381401 3.2850402 1.147408.55072.525627.90931 1.192277 1.07901 2.009565.0224.09615.0352.192302.0512.291659.0416.282043.064.576908.064.8910033zM1.6807998 5.288913c-.006-.71793.0256-1.439066.10891-2.156998.0736-.647419.60834-1.916618.60834-1.916618s.75563.532037 1.06941.839722c.38741.374991.75882.759597 1.12063 1.153817-.87409.34935-1.64573.823699-2.2989 1.442272-.21773.201918-.41943.416657-.60835.637805m17.9557202-.09935c.45145-1.003179.48347-2.009565.0897-3.02877-.21452-.551268-.64356-.833313-1.26151-.871774-.37461-.02565-.74281.02243-1.08861.144228-.96694.342941-1.9403.676266-2.89123 1.054461-.43224.169867-.86769.339735-1.28713.532038-1.05659-.349351-2.25727-.525627-3.6084302-.525627h-.0736c-.12488-.0064-.24975-.0096-.37462-.01281h-.0673c-.12487.0031-.20491.0064-.32978.01281h-.0736c-.92532 0-1.7738.08654-2.55824.253197-.36501-.403836-.73642-.807672-1.09502-1.217917-.58272-.66665002-1.30313-1.13458703-2.16441-1.44227203-.58273-.208328-1.24231-.03525-1.64573.435887C.74917978 1.064666.51224978 1.68965.37137978 2.349891c-.38422 1.794827-.36501 3.586449-.0352 5.368456-.0576.185892-.11206.371787-.15689.564089-.11847.541653-.1793 1.108946-.1793 1.7050863v5.5062727c0 .59614.0576 1.16664.1793 1.70509.0545.23718.11521.47114.19211.6955.365 1.10574 1.00537002 2.08648 1.91467002 2.94223 1.52087 1.43585 3.64365 2.15058 6.3812 2.15058h.0736c.12487.006.20171.01.32979.0128h.0673c.12487-.004.24973-.006.3746-.0128h.0736c2.7343502 0 4.8603402-.71793 6.3812002-2.15058.90931-.85575 1.54967-1.83649 1.91468-2.94223.0737-.22436.13767-.45832.19211-.6955.11847-.54165.1793-1.10895.1793-1.70509V9.9875213c0-.5961403-.0609-1.1634333-.1793-1.7050863-.0257-.112183-.0609-.221149-.0928-.333325.0833-.09935.17289-.195508.25294-.301274.58593-.759598 1.01497-1.596115 1.4024-2.458274" />
</svg>