<svg class="w-32" xmlns="http://www.w3.org/2000/svg" viewBox="0 0 158.60001 87.070002">
    <path
        d="M68.47 36.19c-.59-.78-.88-2.29-.88-4.53v-18c0-4.69-.88-8.13-2.61-10.34C63.25 1.11 60.42 0 56.52 0h-6.64v7.47h4c2.12 0 3.54.48 4.25 1.41.71.93 1.07 2.67 1.07 5.19v21.11c0 5 2.35 7.48 7.08 7.48v1.76c-4.73 0-7.08 2.49-7.08 7.48V73q0 3.78-1.07 5.19c-.71.94-2.13 1.4-4.25 1.4h-4v7.48h6.64c3.9 0 6.71-1.1 8.46-3.3 1.75-2.2 2.61-5.64 2.61-10.33v-18c0-2.22.29-3.73.88-4.53.59-.8 1.77-1.18 3.55-1.18h2.21V37.38h-2.21c-1.78 0-3-.39-3.55-1.19M8.89 38.3v-.92a8.51 8.51 0 0 1 3.67-6.95 13.84 13.84 0 0 1 7.43-2.69h1.74a7.31 7.31 0 0 1 5 1.81 5.76 5.76 0 0 1 1.91 3.24 6.72 6.72 0 0 1 .13 1.29 5.63 5.63 0 0 1-1.79 4.26c-.2.18-.42.37-.65.54A10.85 10.85 0 0 1 19.96 41l-11.07-.07Zm20.94 14.47a7.43 7.43 0 0 1-3.23 4.88 11 11 0 0 1-6.19 1.76h-2.22a9.08 9.08 0 0 1-6.82-2.56 8.6 8.6 0 0 1-2.23-4.51 13.78 13.78 0 0 1-.24-2.64v-2.36h10.43a26.25 26.25 0 0 0 7.41-1 20 20 0 0 0 3.61-1.42c.5-.25 1-.52 1.48-.82a10.83 10.83 0 0 0 3.94-4.14 12.73 12.73 0 0 0 1.46-6.24v-1.27a11.81 11.81 0 0 0-4.11-8.06 15.17 15.17 0 0 0-10.45-3.69h-3A19.92 19.92 0 0 0 8.31 24 18.11 18.11 0 0 0 8 21.53H0a74.58 74.58 0 0 1 .44 9.68V49.7a18.11 18.11 0 0 0 .77 5.35 15.89 15.89 0 0 0 4 6.57c3.15 3.19 7.57 4.65 13.23 4.79h1.42a20.48 20.48 0 0 0 12.28-3.62 15 15 0 0 0 6.15-10.25h-8.41v.23m60.26-1.88c.59.79.89 2.3.89 4.53v18q0 7 2.61 10.33c1.74 2.2 4.56 3.29 8.46 3.29h6.63v-7.47h-4q-3.19 0-4.26-1.41-1.07-1.41-1.03-5.16V51.9q0-7.47-7.08-7.47v-1.77q7.08 0 7.08-7.48V14.07c0-2.51.35-4.25 1.06-5.19.71-.94 2.13-1.4 4.26-1.4h4V0h-6.62q-5.85 0-8.46 3.3-2.61 3.3-2.61 10.34v18c0 2.23-.3 3.74-.89 4.53-.59.79-1.77 1.19-3.54 1.19h-2.22V49.7h2.22c1.77 0 2.95.4 3.54 1.19m59.54-2.1v.91a8.5 8.5 0 0 1-3.66 7 13.81 13.81 0 0 1-7.43 2.7h-1.75a7.33 7.33 0 0 1-5-1.8 5.87 5.87 0 0 1-1.92-3.24 6.88 6.88 0 0 1-.12-1.29 5.63 5.63 0 0 1 1.79-4.26 6.76 6.76 0 0 1 .64-.54 10.81 10.81 0 0 1 6.42-2.16l11.07.08zm-20.93-14.48a7.38 7.38 0 0 1 3.22-4.87 11 11 0 0 1 6.2-1.76h2.22a9 9 0 0 1 6.81 2.56 8.56 8.56 0 0 1 2.24 4.48 13.63 13.63 0 0 1 .24 2.64v2.36H139.3a26.39 26.39 0 0 0-7.42 1 21.63 21.63 0 0 0-3.61 1.42c-.49.26-1 .53-1.48.83a11 11 0 0 0-3.94 4.13 12.75 12.75 0 0 0-1.46 6.25q0 .65.06 1.26a11.78 11.78 0 0 0 4.1 8.06 15.14 15.14 0 0 0 10.45 3.7h3a19.93 19.93 0 0 0 11.3-3.31 20.34 20.34 0 0 0 .3 2.47h8a74.69 74.69 0 0 1-.44-9.68V37.39a18.18 18.18 0 0 0-.77-5.36 15.89 15.89 0 0 0-4-6.56c-3.16-3.2-7.57-4.66-13.24-4.8h-1.42a20.55 20.55 0 0 0-12.27 3.65 15 15 0 0 0-6.15 10.25h8.42a1.89 1.89 0 0 1 .05-.23" />
</svg>