<svg width="24" height="24" viewBox="0 0 6.35 6.35" xmlns="http://www.w3.org/2000/svg">
    <path
        d="M0 0c.087.055.14.088.192.123 1.336.892 2.673 1.783 4.006 2.679a.601.601 0 0 0 .355.105c3.755-.002 7.51-.002 11.265 0 .168 0 .341.007.504.045.718.166 1.118.796 1.118 1.488-.003 3.819-.001 7.638-.003 11.457 0 .146-.011.299-.052.439-.206.708-.728 1.097-1.469 1.1-.822.004-1.645.001-2.466.001-3.957 0-7.914.002-11.87-.006a1.838 1.838 0 0 1-.74-.143c-.587-.272-.842-.766-.841-1.41C.001 10.654 0 5.429 0 .205Zm-2.187 8.064c0 2.599.001 5.198-.001 7.797-.001.872.234 1.667.777 2.355.646.82 1.494 1.285 2.536 1.379.29.027.582.028.874.028 4.625.002 9.25.002 13.876 0 .976 0 1.848-.294 2.568-.97.76-.714 1.167-1.598 1.168-2.643.006-3.946.012-7.892-.01-11.838-.005-.938-.403-1.749-1.078-2.406-.734-.716-1.627-1.045-2.649-1.044-3.56.003-7.119.002-10.678-.003a.618.618 0 0 1-.321-.096C3.677-.17 2.486-.974 1.289-1.767c-.811-.536-1.653-.581-2.481-.056-.679.43-.992 1.085-.994 1.883-.004 2.068-.001 4.137-.001 6.206Z"
        style="fill:#000;fill-opacity:1;fill-rule:nonzero;stroke:none"
        transform="matrix(.29122 0 0 -.29104 .637 5.712)" />
    <path d="M1206.612 3873.538h10.879v-2.165h-10.879zM1206.611 3879.345h10.884v-2.154h-10.884z"
        style="fill:#000;fill-opacity:1;fill-rule:nonzero;stroke:none"
        transform="matrix(.29122 0 0 -.29104 -349.802 1130.639)" />
</svg>