<svg width="24" height="24" viewBox="0 0 6.35 6.35" xmlns="http://www.w3.org/2000/svg">
    <path
        d="M0 0a1.783 1.783 0 0 1-1.801-1.773 1.793 1.793 0 0 1 1.78-1.799A1.794 1.794 0 0 1 1.78-1.794 1.784 1.784 0 0 1 0 0m-1.801-15.374c-.016-.983.791-1.803 1.785-1.813.966-.01 1.782.796 1.796 1.773a1.8 1.8 0 0 1-1.771 1.813c-.971.02-1.794-.785-1.81-1.773m-10.01 9.653a2.875 2.875 0 0 1-2.881-2.842c-.031-1.544 1.236-2.853 2.816-2.889 1.563-.037 2.875 1.23 2.91 2.809.035 1.585-1.233 2.887-2.845 2.922m3.744.444 3.422 2.207c.215.139.426.284.646.415.097.057.116.121.098.224a3.683 3.683 0 0 0 .302 2.275c.619 1.286 1.64 2.062 3.062 2.239 1.959.246 3.756-.941 4.249-2.848.414-1.598-.032-2.981-1.305-4.046-1.515-1.269-3.767-1.158-5.18.22l-.103.097-4.149-2.664c.14-.468.207-.944.207-1.429 0-.485-.066-.96-.208-1.433l4.116-2.643c.317.234.599.48.916.669 1.823 1.086 4.199.494 5.319-1.312 1.302-2.099.425-4.829-1.875-5.741-1.383-.548-2.716-.359-3.882.557-1.183.93-1.667 2.188-1.466 3.691.019.146-.01.226-.141.309-1.294.826-2.584 1.66-3.874 2.492l-.155.097c-1.11-1.194-2.474-1.785-4.101-1.685-1.398.086-2.573.682-3.478 1.744a4.986 4.986 0 0 0 .053 6.568c.998 1.118 2.263 1.695 3.765 1.694 1.496-.002 2.741-.598 3.762-1.697"
        style="fill:#000;fill-opacity:1;fill-rule:nonzero;stroke:none"
        transform="matrix(.29579 0 0 -.29579 5.086 .626)" />
</svg>